<svg preserveAspectRatio="none" width="100%" height="100%" overflow="visible" style="display: block;" viewBox="0 0 24 16" fill="none" xmlns="http://www.w3.org/2000/svg">
<path id="Vector" fill-rule="evenodd" clip-rule="evenodd" d="M19.7633 9.71962C19.5943 11.2521 18.8966 12.6822 17.7857 13.7735C13.6925 17.7841 8.3667 15.8356 6.05611 12.1963L8.75119 10.8805C10.188 13.002 13.3301 14.098 15.7418 11.733C16.6396 10.8534 17.2743 9.93052 17.4233 8.98239L13.7992 11.0787L12.3017 8.53716L19.7817 5.40798L24 12.0773L21.4245 13.5428L19.7633 9.71962ZM8.20297 4.26698C7.40089 5.05468 6.80484 5.87483 6.58041 6.71841L10.2008 4.62748L11.6983 7.16905L4.2183 10.2982L0 3.62888L2.5755 2.16343L4.23118 5.97397C4.44857 4.55427 5.12572 3.24057 6.16281 2.22651C10.1456 -1.67596 15.2966 0.0634795 17.6992 3.51352L15.2231 5.15382C13.7992 3.01242 10.6331 1.88584 8.20297 4.26698Z" fill="var(--fill-0, black)"/>
</svg>
