<svg preserveAspectRatio="none" width="100%" height="100%" overflow="visible" style="display: block;" viewBox="0 0 18 20" fill="none" xmlns="http://www.w3.org/2000/svg">
<path id="Vector" fill-rule="evenodd" clip-rule="evenodd" d="M16.7398 13.4521C12.9786 13.706 12.3303 16.2449 11.9101 20L10.2012 19.9721L10.4728 16.773L9.03285 16.5445L8.64597 19.9467L7.14712 19.9238L7.34696 17.225L5.89679 16.9965L5.54834 19.8984L3.66772 19.8781C4.02642 15.4198 3.69078 13.1449 0.416357 12.0075C-1.12093 6.9296 1.47965 -0.96646 10.2114 0.0973509C18.9432 1.16116 19.0175 8.89473 16.7398 13.4521ZM5.87117 7.05655C2.59418 6.65794 1.83835 11.553 5.31774 11.977C8.48712 12.3654 9.12765 7.45262 5.87117 7.05655ZM12.5097 8.8795C10.2217 8.60022 9.69133 12.0252 12.1202 12.3223C14.3467 12.5914 14.7849 9.15624 12.5097 8.8795Z" fill="var(--fill-0, black)"/>
</svg>
